# xmcd CD database file
# Copyright (C) 1993-1997  Ti Kan
#
# Track frame offsets:
#	150
#	12805
#	30345
#	40290
#	49705
#	60835
#	73640
#	100767
#	111400
#	139140
#	151965
#	162927
#	172947
#
# Disc length: 2529 seconds
#
# Revision: 1
# Processed by: cddbd v1.4b41PL1 Copyright (c) Steve Scherf et al.
# Submitted via: xmcd 2.2 PL0
#
DISCID=9b09df0d
DTITLE=McGraw Gap 
DYEAR=1900
DGENRE=
TTITLE0=Fireline
TTITLE1=Troubled Times
TTITLE2=
TTITLE3=Kangding
TTITLE4=Sweet Love
TTITLE5=Last Drink of Wine
TTITLE6=Jerry's Farewell
TTITLE7=Men of God
TTITLE8=Keep On Movin'
TTITLE9=Leavin' on a Big Jet Plane
TTITLE10=Waffle Hoss
TTITLE11=Buffalo Creek
TTITLE12=Kentucky Fried Mandolin
EXTD=
EXTT0=
EXTT1=
EXTT2=
EXTT3=
EXTT4=
EXTT5=
EXTT6=
EXTT7=
EXTT8=
EXTT9=
EXTT10=
EXTT11=
EXTT12=
PLAYORDER=
